<?xml version="1.0" encoding="UTF-8" standalone="no"?>
<!-- Created with Inkscape (http://www.inkscape.org/) -->

<svg
   xmlns:dc="http://purl.org/dc/elements/1.1/"
   xmlns:cc="http://creativecommons.org/ns#"
   xmlns:rdf="http://www.w3.org/1999/02/22-rdf-syntax-ns#"
   xmlns:svg="http://www.w3.org/2000/svg"
   xmlns="http://www.w3.org/2000/svg"
   xmlns:sodipodi="http://sodipodi.sourceforge.net/DTD/sodipodi-0.dtd"
   xmlns:inkscape="http://www.inkscape.org/namespaces/inkscape"
   height="50"
   width="200"
   version="1.1"
   id="svg2"
   inkscape:version="0.48.5 r10040"
   sodipodi:docname="logo.svg">
  <defs
     id="defs88" />
  <sodipodi:namedview
     pagecolor="#626262"
     bordercolor="#666666"
     borderopacity="1"
     objecttolerance="10"
     gridtolerance="10"
     guidetolerance="10"
     inkscape:pageopacity="1"
     inkscape:pageshadow="2"
     inkscape:window-width="1920"
     inkscape:window-height="1091"
     id="namedview86"
     showgrid="false"
     showguides="true"
     inkscape:guide-bbox="true"
     inkscape:zoom="2.2164935"
     inkscape:cx="131.51403"
     inkscape:cy="28.695"
     inkscape:window-x="0"
     inkscape:window-y="0"
     inkscape:window-maximized="1"
     inkscape:current-layer="svg2" />
  <metadata
     id="metadata4">
    <rdf:RDF>
      <cc:Work
         rdf:about="">
        <dc:format>image/svg+xml</dc:format>
        <dc:type
           rdf:resource="http://purl.org/dc/dcmitype/StillImage" />
        <dc:title />
      </cc:Work>
    </rdf:RDF>
  </metadata>
  <g
     style="font-size:48px;font-style:normal;font-variant:normal;font-weight:normal;font-stretch:normal;line-height:125%;letter-spacing:0px;word-spacing:0px;fill:#ffffff;fill-opacity:1;stroke:none;font-family:Cuprum;-inkscape-font-specification:Cuprum"
     id="text3065">
    <path
       d="m 16.629688,35.4 -5.8,-17.2 -0.2,0 -1.2000005,20.8 -3.6,0 1.6,-28 4.4000005,0 6.52,19.2 0.16,0 6.52,-19.2 4.4,0 1.6,28 -3.6,0 -1.2,-20.8 -0.2,0 -5.8,17.2 -3.6,0"
       style="font-size:40px;-inkscape-font-specification:Cuprum"
       id="path3070" />
    <path
       d="m 33.639063,35.8 c 1.999997,-2.506661 3.666662,-4.573326 5,-6.2 1.333326,-1.653322 2.399992,-3.079988 3.2,-4.28 0.79999,-1.199985 1.35999,-2.279984 1.68,-3.24 0.346656,-0.959982 0.519989,-1.986648 0.52,-3.08 -1.1e-5,-2.106645 -0.386678,-3.599976 -1.16,-4.48 -0.746676,-0.879975 -1.826675,-1.319974 -3.24,-1.32 l -5.6,0 0,-1.8 c 0.613331,-0.213306 1.466664,-0.399972 2.56,-0.56 1.093328,-0.159972 2.239994,-0.239972 3.44,-0.24 2.613323,2.8e-5 4.533322,0.653361 5.76,1.96 1.226652,1.280025 1.839985,3.42669 1.84,6.44 -1.5e-5,1.306685 -0.200015,2.520017 -0.6,3.64 -0.400014,1.120015 -1.02668,2.320014 -1.88,3.6 -0.826678,1.280011 -1.88001,2.72001 -3.16,4.32 -1.280008,1.57334 -2.800006,3.453338 -4.56,5.64 l 10.2,0 0,2.8 -14,0 0,-3.2"
       style="font-size:40px;-inkscape-font-specification:Cuprum"
       id="path3072" />
    <path
       d="m 61.864063,35.4 -5.8,-17.2 -0.2,0 -1.2,20.8 -3.6,0 1.6,-28 4.4,0 6.52,19.2 0.16,0 6.52,-19.2 4.4,0 1.6,28 -3.6,0 -1.2,-20.8 -0.2,0 -5.8,17.2 -3.6,0"
       style="font-size:40px;-inkscape-font-specification:Cuprum"
       id="path3074" />
    <path
       d="m 95.273438,22 0,10.6 c -7e-6,0.906672 0.07999,1.653338 0.24,2.24 0.186659,0.560004 0.413325,1.000003 0.68,1.32 0.293325,0.320003 0.599991,0.546669 0.92,0.68 0.346657,0.106669 0.666657,0.160002 0.96,0.16 l 3.600002,0 0,1.6 c -0.24002,0.106667 -0.56002,0.213334 -0.96,0.32 -0.37335,0.08 -0.773347,0.16 -1.200002,0.24 -0.400011,0.08 -0.800011,0.133333 -1.2,0.16 -0.40001,0.05333 -0.746676,0.08 -1.04,0.08 -0.800008,0 -1.546674,-0.09333 -2.24,-0.28 -0.666673,-0.186667 -1.253339,-0.52 -1.76,-1 -0.506671,-0.506665 -0.906671,-1.199998 -1.2,-2.08 -0.26667,-0.879996 -0.400004,-2.026662 -0.4,-3.44 l 0,-10.6 -2.4,0 0,-2.6 2.4,0 0,-4.8 3.6,0 0,4.8 5.600002,0 0,1.8 c -0.61335,0.213351 -1.373347,0.400017 -2.280002,0.56 -0.88001,0.160017 -1.720009,0.240017 -2.52,0.24 l -0.8,0"
       style="font-size:40px;-inkscape-font-specification:Cuprum"
       id="path3076" />
    <path
       d="m 114.91094,29 c -2e-5,-1.599988 -0.10668,-2.919987 -0.32,-3.96 -0.21335,-1.066652 -0.49335,-1.906651 -0.84,-2.52 -0.34668,-0.639983 -0.74668,-1.079982 -1.2,-1.32 -0.45335,-0.266649 -0.93335,-0.399982 -1.44,-0.4 -0.50668,1.8e-5 -0.98668,0.133351 -1.44,0.4 -0.45334,0.240018 -0.85334,0.680017 -1.2,1.32 -0.34668,0.613349 -0.62668,1.453348 -0.84,2.52 -0.21334,1.040013 -0.32001,2.360012 -0.32,3.96 -1e-5,1.600008 0.10666,2.93334 0.32,4 0.21332,1.040005 0.49332,1.880004 0.84,2.52 0.34666,0.613336 0.74666,1.053336 1.2,1.32 0.45332,0.240002 0.93332,0.360002 1.44,0.36 0.50665,2e-6 0.98665,-0.119998 1.44,-0.36 0.45332,-0.266664 0.85332,-0.706664 1.2,-1.32 0.34665,-0.639996 0.62665,-1.479995 0.84,-2.52 0.21332,-1.06666 0.31998,-2.399992 0.32,-4 m 3.6,0 c -2e-5,1.946675 -0.16002,3.586673 -0.48,4.92 -0.32002,1.333337 -0.80002,2.413336 -1.44,3.24 -0.61335,0.800001 -1.38668,1.373334 -2.32,1.72 -0.90668,0.346666 -1.96001,0.52 -3.16,0.52 -1.20001,0 -2.26668,-0.173334 -3.2,-0.52 -0.90667,-0.346666 -1.68001,-0.919999 -2.32,-1.72 -0.61334,-0.826664 -1.08001,-1.906663 -1.4,-3.24 -0.32,-1.333327 -0.48,-2.973325 -0.48,-4.92 0,-1.946655 0.16,-3.586653 0.48,-4.92 0.31999,-1.333317 0.78666,-2.399983 1.4,-3.2 0.63999,-0.826648 1.41333,-1.413314 2.32,-1.76 0.93332,-0.346646 1.99999,-0.51998 3.2,-0.52 1.19999,2e-5 2.25332,0.173354 3.16,0.52 0.93332,0.346686 1.70665,0.933352 2.32,1.76 0.63998,0.800017 1.11998,1.866683 1.44,3.2 0.31998,1.333347 0.47998,2.973345 0.48,4.92"
       style="font-size:40px;-inkscape-font-specification:Cuprum"
       id="path3078" />
    <path
       d="m 131.74844,17.8 c 0,-2.426643 0.61333,-4.226641 1.84,-5.4 1.22666,-1.199972 3.14666,-1.799972 5.76,-1.8 1.19999,2.8e-5 2.34665,0.08003 3.44,0.24 1.09332,0.160028 1.94665,0.346694 2.56,0.56 l 0,1.8 -5.2,0 c -3.20001,2.6e-5 -4.80001,1.533358 -4.8,4.6 -1e-5,1.226687 0.27999,2.200019 0.84,2.92 0.55999,0.720018 1.26666,1.33335 2.12,1.84 0.85332,0.480016 1.75999,0.933349 2.72,1.36 0.98665,0.400015 1.90665,0.920014 2.76,1.56 0.85332,0.613346 1.55998,1.413345 2.12,2.4 0.55998,0.986677 0.83998,2.293342 0.84,3.92 -2e-5,1.306673 -0.16002,2.440005 -0.48,3.4 -0.32002,0.933336 -0.84002,1.720002 -1.56,2.36 -0.69335,0.613334 -1.61335,1.08 -2.76,1.4 -1.14668,0.293333 -2.54668,0.44 -4.2,0.44 -1.20001,0 -2.34667,-0.08 -3.44,-0.24 -1.09334,-0.16 -1.94667,-0.346666 -2.56,-0.56 l 0,-1.8 5.2,0 c 2.29332,2e-6 3.89332,-0.399997 4.8,-1.2 0.93332,-0.826662 1.39998,-2.093328 1.4,-3.8 -2e-5,-1.173325 -0.28001,-2.093324 -0.84,-2.76 -0.56001,-0.666656 -1.26668,-1.226655 -2.12,-1.68 -0.85334,-0.479988 -1.77334,-0.933321 -2.76,-1.36 -0.96001,-0.426653 -1.86667,-0.959986 -2.72,-1.6 -0.85334,-0.639985 -1.56001,-1.466651 -2.12,-2.48 -0.56,-1.039982 -0.84,-2.413314 -0.84,-4.12"
       style="font-size:40px;-inkscape-font-specification:Cuprum"
       id="path3080" />
    <path
       d="m 161.16094,35.4 -5.8,-17.2 -0.2,0 -1.2,20.8 -3.6,0 1.6,-28 4.4,0 6.52,19.2 0.16,0 6.52,-19.2 4.4,0 1.6,28 -3.6,0 -1.2,-20.8 -0.2,0 -5.8,17.2 -3.6,0"
       style="font-size:40px;-inkscape-font-specification:Cuprum"
       id="path3082" />
    <path
       d="m 179.17031,17.8 c 0,-2.426643 0.61333,-4.226641 1.84,-5.4 1.22666,-1.199972 3.14666,-1.799972 5.76,-1.8 1.19999,2.8e-5 2.34666,0.08003 3.44,0.24 1.09332,0.160028 1.94665,0.346694 2.56,0.56 l 0,1.8 -5.2,0 c -3.2,2.6e-5 -4.8,1.533358 -4.8,4.6 0,1.226687 0.28,2.200019 0.84,2.92 0.56,0.720018 1.26666,1.33335 2.12,1.84 0.85333,0.480016 1.75999,0.933349 2.72,1.36 0.98666,0.400015 1.90666,0.920014 2.76,1.56 0.85332,0.613346 1.55999,1.413345 2.12,2.4 0.55999,0.986677 0.83999,2.293342 0.84,3.92 -1e-5,1.306673 -0.16001,2.440005 -0.48,3.4 -0.32001,0.933336 -0.84001,1.720002 -1.56,2.36 -0.69334,0.613334 -1.61334,1.08 -2.76,1.4 -1.14667,0.293333 -2.54667,0.44 -4.2,0.44 -1.2,0 -2.34667,-0.08 -3.44,-0.24 -1.09333,-0.16 -1.94667,-0.346666 -2.56,-0.56 l 0,-1.8 5.2,0 c 2.29333,2e-6 3.89333,-0.399997 4.8,-1.2 0.93332,-0.826662 1.39999,-2.093328 1.4,-3.8 -1e-5,-1.173325 -0.28001,-2.093324 -0.84,-2.76 -0.56001,-0.666656 -1.26667,-1.226655 -2.12,-1.68 -0.85334,-0.479988 -1.77334,-0.933321 -2.76,-1.36 -0.96,-0.426653 -1.86667,-0.959986 -2.72,-1.6 -0.85333,-0.639985 -1.56,-1.466651 -2.12,-2.48 -0.56,-1.039982 -0.84,-2.413314 -0.84,-4.12"
       style="font-size:40px;-inkscape-font-specification:Cuprum"
       id="path3084" />
  </g>
</svg>
