<?xml version="1.0" encoding="UTF-8" standalone="no"?>
<!-- Created with Inkscape (http://www.inkscape.org/) -->
<svg xmlns:rdf="http://www.w3.org/1999/02/22-rdf-syntax-ns#" xmlns="http://www.w3.org/2000/svg" height="31" width="88" version="1.1" xmlns:cc="http://creativecommons.org/ns#" xmlns:xlink="http://www.w3.org/1999/xlink" xmlns:dc="http://purl.org/dc/elements/1.1/">
	<defs>
		<clipPath id="clipPath3548" clipPathUnits="userSpaceOnUse">
			<rect height="31" width="88" y="1021.4" x="0" fill="#f0f0f0"/>
		</clipPath>
	</defs>
	<metadata>
		<rdf:RDF>
			<cc:Work rdf:about="">
				<dc:format>image/svg+xml</dc:format>
				<dc:type rdf:resource="http://purl.org/dc/dcmitype/StillImage"/>
				<dc:title/>
			</cc:Work>
		</rdf:RDF>
	</metadata>
	<g clip-path="url(#clipPath3548)" transform="translate(0,-1021.3622)">
		<g transform="translate(0,990.36218)">
			<g image-rendering="optimizeQuality" text-rendering="geometricPrecision" shape-rendering="geometricPrecision">
				<g image-rendering="optimizeQuality" text-rendering="geometricPrecision" shape-rendering="geometricPrecision">
					<path fill="none" d="M0,0,88,0,88,31,0,31,0,0z"/>
					<path fill="none" d="M44,15.5"/>
					<path fill="#b3cee1" d="M0,0,83,0,83,31,0,31,0,0z"/>
					<path fill="#b3cee1" d="M41.5,15.5"/>
					<path fill="#FFF" d="m0.365,0,36.444,0,0,31-36.444,0,0-31z"/>
					<path fill="#FFF" d="M18.587,15.5"/>
					<path fill="none" d="m4.692,2.291,40.005,0,0,24.606-40.005,0,0-24.606z"/>
					<path fill="none" d="M24.695,14.594"/>
					<defs>
						<polygon id="XMLID_640_" points="0,31,0,30,0,30,83,30,83,31"/>
					</defs>
					<use xlink:href="#XMLID_640_" height="1" width="1" y="0" x="0" fill="#504d4c"/>
					<clipPath id="XMLID_666_">
						<use xlink:href="#XMLID_640_" height="1" width="1" y="0" x="0"/>
					</clipPath>
					<g clip-path="url(#XMLID_666_)">
						<path fill="none" d="M0,0,88,0,88,31,0,31,0,0z"/>
						<path fill="none" d="M44,15.5"/>
						<path fill="#48494b" d="M0,0,83,0,83,31,0,31,0,0z"/>
						<path fill="#48494b" d="M41.5,15.5"/>
						<path fill="#4f4f4f" d="m0.365,0,36.444,0,0,31-36.444,0,0-31z"/>
						<path fill="#4f4f4f" d="M18.587,15.5"/>
					</g>
					<defs>
						<polygon id="XMLID_642_" points="82,31,82,0,82,0,83,0,83,31"/>
					</defs>
					<use xlink:href="#XMLID_642_" height="1" width="1" y="0" x="0" fill="#504d4c"/>
					<clipPath id="XMLID_667_">
						<use xlink:href="#XMLID_642_" height="1" width="1" y="0" x="0"/>
					</clipPath>
					<g clip-path="url(#XMLID_667_)">
						<path fill="none" d="M0,0,88,0,88,31,0,31,0,0z"/>
						<path fill="none" d="M44,15.5"/>
						<path fill="#48494b" d="M0,0,83,0,83,31,0,31,0,0z"/>
						<path fill="#48494b" d="M41.5,15.5"/>
						<defs>
							<polygon id="XMLID_644_" points="0,31,0,30,0,30,83,30,83,31"/>
						</defs>
						<use xlink:href="#XMLID_644_" height="1" width="1" y="0" x="0" fill="#191919"/>
						<clipPath id="XMLID_668_">
							<use xlink:href="#XMLID_644_" height="1" width="1" y="0" x="0"/>
						</clipPath>
						<g clip-path="url(#XMLID_668_)">
							<path fill="none" d="M0,0,88,0,88,31,0,31,0,0z"/>
							<path fill="none" d="M44,15.5"/>
							<path fill="#181818" d="M0,0,83,0,83,31,0,31,0,0z"/>
							<path fill="#181818" d="M41.5,15.5"/>
							<path fill="#191919" d="m0.365,0,36.444,0,0,31-36.444,0,0-31z"/>
							<path fill="#191919" d="M18.587,15.5"/>
						</g>
					</g>
					<path fill="#CCC" d="M0,0,1,0,1,31,0,31,0,0z"/>
					<path fill="#CCC" d="M0.5,15.5"/>
					<defs>
						<polygon id="XMLID_646_" points="2.16,30.005,2.16,29.005,2.16,29.005,82.16,29.005,82.16,30.005"/>
					</defs>
					<use xlink:href="#XMLID_646_" height="1" width="1" y="0" x="0" fill="#9e9c9c"/>
					<clipPath id="XMLID_669_">
						<use xlink:href="#XMLID_646_" height="1" width="1" y="0" x="0"/>
					</clipPath>
					<g clip-path="url(#XMLID_669_)">
						<path fill="none" d="M0,0,88,0,88,31,0,31,0,0z"/>
						<path fill="none" d="M44,15.5"/>
						<path fill="#9097a0" d="M0,0,83,0,83,31,0,31,0,0z"/>
						<path fill="#9097a0" d="M41.5,15.5"/>
						<path fill="#b5b5b5" d="m0.365,0,36.444,0,0,31-36.444,0,0-31z"/>
						<path fill="#b5b5b5" d="M18.587,15.5"/>
						<defs>
							<polygon id="XMLID_648_" points="0,31,0,30,0,30,83,30,83,31"/>
						</defs>
						<use xlink:href="#XMLID_648_" height="1" width="1" y="0" x="0" fill="#383838"/>
						<clipPath id="XMLID_670_">
							<use xlink:href="#XMLID_648_" height="1" width="1" y="0" x="0"/>
						</clipPath>
						<g clip-path="url(#XMLID_670_)">
							<path fill="none" d="M0,0,88,0,88,31,0,31,0,0z"/>
							<path fill="none" d="M44,15.5"/>
							<path fill="#343536" d="M0,0,83,0,83,31,0,31,0,0z"/>
							<path fill="#343536" d="M41.5,15.5"/>
							<path fill="#383838" d="m0.365,0,36.444,0,0,31-36.444,0,0-31z"/>
							<path fill="#383838" d="M18.587,15.5"/>
						</g>
						<defs>
							<polygon id="XMLID_650_" points="82,31,82,0,82,0,83,0,83,31"/>
						</defs>
						<use xlink:href="#XMLID_650_" height="1" width="1" y="0" x="0" fill="#383838"/>
						<clipPath id="XMLID_671_">
							<use xlink:href="#XMLID_650_" height="1" width="1" y="0" x="0"/>
						</clipPath>
						<g clip-path="url(#XMLID_671_)">
							<path fill="none" d="M0,0,88,0,88,31,0,31,0,0z"/>
							<path fill="none" d="M44,15.5"/>
							<path fill="#343536" d="M0,0,83,0,83,31,0,31,0,0z"/>
							<path fill="#343536" d="M41.5,15.5"/>
							<defs>
								<polygon id="XMLID_652_" points="0,31,0,30,0,30,83,30,83,31"/>
							</defs>
							<use xlink:href="#XMLID_652_" height="1" width="1" y="0" x="0" fill="#131313"/>
							<clipPath id="XMLID_672_">
								<use xlink:href="#XMLID_652_" height="1" width="1" y="0" x="0"/>
							</clipPath>
							<g clip-path="url(#XMLID_672_)">
								<path fill="none" d="M0,0,88,0,88,31,0,31,0,0z"/>
								<path fill="none" d="M44,15.5"/>
								<path fill="#131313" d="M0,0,83,0,83,31,0,31,0,0z"/>
								<path fill="#131313" d="M41.5,15.5"/>
								<path fill="#131313" d="m0.365,0,36.444,0,0,31-36.444,0,0-31z"/>
								<path fill="#131313" d="M18.587,15.5"/>
							</g>
						</g>
					</g>
					<defs>
						<polygon id="XMLID_654_" points="80.806,31,80.806,1,80.806,1,81.806,1,81.806,31"/>
					</defs>
					<use xlink:href="#XMLID_654_" height="1" width="1" y="0" x="0" fill="#9e9c9c"/>
					<clipPath id="XMLID_673_">
						<use xlink:href="#XMLID_654_" height="1" width="1" y="0" x="0"/>
					</clipPath>
					<g clip-path="url(#XMLID_673_)">
						<path fill="none" d="M0,0,88,0,88,31,0,31,0,0z"/>
						<path fill="none" d="M44,15.5"/>
						<path fill="#9097a0" d="M0,0,83,0,83,31,0,31,0,0z"/>
						<path fill="#9097a0" d="M41.5,15.5"/>
						<defs>
							<polygon id="XMLID_656_" points="0,31,0,30,0,30,83,30,83,31"/>
						</defs>
						<use xlink:href="#XMLID_656_" height="1" width="1" y="0" x="0" fill="#383838"/>
						<clipPath id="XMLID_674_">
							<use xlink:href="#XMLID_656_" height="1" width="1" y="0" x="0"/>
						</clipPath>
						<g clip-path="url(#XMLID_674_)">
							<path fill="none" d="M0,0,88,0,88,31,0,31,0,0z"/>
							<path fill="none" d="M44,15.5"/>
							<path fill="#343536" d="M0,0,83,0,83,31,0,31,0,0z"/>
							<path fill="#343536" d="M41.5,15.5"/>
							<path fill="#383838" d="m0.365,0,36.444,0,0,31-36.444,0,0-31z"/>
							<path fill="#383838" d="M18.587,15.5"/>
						</g>
						<defs>
							<polygon id="XMLID_658_" points="2.16,30.005,2.16,29.005,2.16,29.005,82.16,29.005,82.16,30.005"/>
						</defs>
						<use xlink:href="#XMLID_658_" height="1" width="1" y="0" x="0" fill="#818181"/>
						<clipPath id="XMLID_675_">
							<use xlink:href="#XMLID_658_" height="1" width="1" y="0" x="0"/>
						</clipPath>
						<g clip-path="url(#XMLID_675_)">
							<path fill="none" d="M0,0,88,0,88,31,0,31,0,0z"/>
							<path fill="none" d="M44,15.5"/>
							<path fill="#6e7176" d="M0,0,83,0,83,31,0,31,0,0z"/>
							<path fill="#6e7176" d="M41.5,15.5"/>
							<path fill="#818181" d="m0.365,0,36.444,0,0,31-36.444,0,0-31z"/>
							<path fill="#818181" d="M18.587,15.5"/>
							<defs>
								<polygon id="XMLID_660_" points="0,31,0,30,0,30,83,30,83,31"/>
							</defs>
							<use xlink:href="#XMLID_660_" height="1" width="1" y="0" x="0" fill="#272727"/>
							<clipPath id="XMLID_676_">
								<use xlink:href="#XMLID_660_" height="1" width="1" y="0" x="0"/>
							</clipPath>
							<g clip-path="url(#XMLID_676_)">
								<path fill="none" d="M0,0,88,0,88,31,0,31,0,0z"/>
								<path fill="none" d="M44,15.5"/>
								<path fill="#252626" d="M0,0,83,0,83,31,0,31,0,0z"/>
								<path fill="#252626" d="M41.5,15.5"/>
								<path fill="#272727" d="m0.365,0,36.444,0,0,31-36.444,0,0-31z"/>
								<path fill="#272727" d="M18.587,15.5"/>
							</g>
							<defs>
								<polygon id="XMLID_662_" points="82,31,82,0,82,0,83,0,83,31"/>
							</defs>
							<use xlink:href="#XMLID_662_" height="1" width="1" y="0" x="0" fill="#272727"/>
							<clipPath id="XMLID_677_">
								<use xlink:href="#XMLID_662_" height="1" width="1" y="0" x="0"/>
							</clipPath>
							<g clip-path="url(#XMLID_677_)">
								<path fill="none" d="M0,0,88,0,88,31,0,31,0,0z"/>
								<path fill="none" d="M44,15.5"/>
								<path fill="#252626" d="M0,0,83,0,83,31,0,31,0,0z"/>
								<path fill="#252626" d="M41.5,15.5"/>
								<defs>
									<polygon id="XMLID_664_" points="0,31,0,30,0,30,83,30,83,31"/>
								</defs>
								<use xlink:href="#XMLID_664_" height="1" width="1" y="0" x="0" fill="#101010"/>
								<clipPath id="XMLID_678_">
									<use xlink:href="#XMLID_664_" height="1" width="1" y="0" x="0"/>
								</clipPath>
								<g clip-path="url(#XMLID_678_)">
									<path fill="none" d="M0,0,88,0,88,31,0,31,0,0z"/>
									<path fill="none" d="M44,15.5"/>
									<path fill="#101010" d="M0,0,83,0,83,31,0,31,0,0z"/>
									<path fill="#101010" d="M41.5,15.5"/>
									<path fill="#101010" d="m0.365,0,36.444,0,0,31-36.444,0,0-31z"/>
									<path fill="#101010" d="M18.587,15.5"/>
								</g>
							</g>
						</g>
					</g>
					<path fill="#CCC" d="M0,0,83,0,83,1,0,1,0,0z"/>
					<path fill="#CCC" d="M41.5,0.5"/>
					<path d="m68.273,18.844,6.018,5.504,11.71-11.711" stroke="#005a9c" stroke-miterlimit="3.86369991" stroke-width="4.81169987" fill="none"/>
					<path fill-rule="evenodd" clip-rule="evenodd" d="m45.772,18.318c-0.345,0.179-0.705,0.314-1.079,0.406-0.375,0.091-0.765,0.136-1.172,0.136-1.214,0-2.176-0.338-2.886-1.015-0.71-0.681-1.064-1.602-1.064-2.764,0-1.165,0.354-2.086,1.064-2.763,0.709-0.681,1.671-1.021,2.886-1.021,0.407,0,0.797,0.045,1.172,0.137,0.374,0.091,0.734,0.226,1.079,0.405v1.508c-0.349-0.237-0.692-0.412-1.03-0.522-0.339-0.111-0.695-0.166-1.069-0.166-0.671,0-1.198,0.215-1.582,0.645s-0.576,1.022-0.576,1.777c0,0.752,0.192,1.343,0.576,1.773s0.911,0.644,1.582,0.644c0.374,0,0.73-0.055,1.069-0.166,0.338-0.111,0.682-0.285,1.03-0.522v1.508z"/>
					<path fill-rule="evenodd" clip-rule="evenodd" d="m52.502,11.658v1.543c-0.4-0.179-0.791-0.314-1.172-0.405s-0.741-0.137-1.079-0.137c-0.449,0-0.781,0.062-0.996,0.186s-0.322,0.315-0.322,0.576c0,0.195,0.072,0.348,0.215,0.459,0.146,0.107,0.41,0.2,0.791,0.278l0.801,0.161c0.811,0.163,1.387,0.41,1.729,0.742s0.513,0.804,0.513,1.416c0,0.804-0.239,1.403-0.718,1.797-0.475,0.391-1.203,0.585-2.183,0.585-0.462,0-0.926-0.043-1.392-0.131-0.465-0.088-0.931-0.218-1.396-0.391v-1.587c0.466,0.247,0.915,0.434,1.348,0.562,0.437,0.124,0.856,0.185,1.26,0.185,0.41,0,0.725-0.068,0.942-0.205,0.218-0.137,0.327-0.332,0.327-0.586,0-0.228-0.075-0.404-0.225-0.527-0.146-0.124-0.441-0.234-0.884-0.333l-0.728-0.161c-0.729-0.156-1.263-0.406-1.602-0.748-0.335-0.342-0.503-0.802-0.503-1.381,0-0.726,0.234-1.284,0.703-1.675s1.143-0.586,2.021-0.586c0.4,0,0.813,0.031,1.235,0.093,0.425,0.06,0.863,0.15,1.315,0.27z"/>
					<path fill-rule="evenodd" clip-rule="evenodd" d="m59.805,11.658v1.543c-0.4-0.179-0.791-0.314-1.172-0.405s-0.741-0.137-1.079-0.137c-0.449,0-0.781,0.062-0.996,0.186s-0.322,0.315-0.322,0.576c0,0.195,0.072,0.348,0.215,0.459,0.146,0.107,0.41,0.2,0.791,0.278l0.801,0.161c0.811,0.163,1.387,0.41,1.729,0.742s0.513,0.804,0.513,1.416c0,0.804-0.239,1.403-0.718,1.797-0.475,0.391-1.203,0.585-2.183,0.585-0.462,0-0.926-0.043-1.392-0.131s-0.931-0.218-1.396-0.391v-1.587c0.465,0.247,0.915,0.434,1.348,0.562,0.436,0.124,0.856,0.185,1.26,0.185,0.41,0,0.724-0.068,0.942-0.205s0.327-0.332,0.327-0.586c0-0.228-0.075-0.404-0.225-0.527-0.146-0.124-0.441-0.234-0.884-0.333l-0.728-0.161c-0.729-0.156-1.263-0.406-1.602-0.748-0.335-0.342-0.503-0.802-0.503-1.381,0-0.726,0.234-1.284,0.703-1.675s1.143-0.586,2.021-0.586c0.4,0,0.812,0.031,1.235,0.093,0.425,0.06,0.862,0.15,1.315,0.27z"/>
					<path d="m33.077,7.037,0.334,2.034-1.185,2.266s-0.455-0.961-1.21-1.493c-0.636-0.449-1.051-0.546-1.699-0.412-0.833,0.171-1.777,1.167-2.189,2.395-0.493,1.469-0.498,2.179-0.515,2.833-0.027,1.046,0.137,1.665,0.137,1.665s-0.719-1.331-0.712-3.279c0.005-1.391,0.223-2.652,0.867-3.896,0.566-1.094,1.408-1.751,2.154-1.828,0.772-0.08,1.382,0.292,1.854,0.695,0.495,0.423,0.996,1.347,0.996,1.347l1.168-2.327z"/>
					<path d="m33.222,18.546s-0.523,0.936-0.85,1.296c-0.326,0.36-0.91,0.996-1.631,1.313s-1.099,0.377-1.811,0.309c-0.712-0.069-1.374-0.481-1.605-0.652-0.232-0.172-0.824-0.678-1.159-1.15s-0.858-1.417-0.858-1.417,0.292,0.946,0.474,1.348c0.105,0.231,0.428,0.938,0.886,1.553,0.427,0.574,1.257,1.562,2.519,1.786,1.262,0.223,2.128-0.344,2.343-0.481,0.214-0.137,0.667-0.516,0.953-0.822,0.299-0.32,0.582-0.728,0.738-0.972,0.114-0.178,0.301-0.541,0.301-0.541l-0.3-1.57z"/>
					<path fill="#005a9c" d="m11.437,7.127,2.852,9.698,2.852-9.698h2.065l-4.72,15.933h-0.197l-2.951-9.875-2.95,9.875h-0.197l-4.721-15.933h2.065l2.852,9.698,1.928-6.531-0.943-3.167h2.065z"/>
					<path fill="#005a9c" d="m25.072,17.946c0,1.443-0.384,2.656-1.151,3.64-0.767,0.983-1.76,1.475-2.98,1.475-0.918,0-1.718-0.292-2.4-0.875s-1.187-1.374-1.515-2.371l1.613-0.668c0.236,0.604,0.548,1.079,0.935,1.426,0.387,0.348,0.843,0.521,1.367,0.521,0.551,0,1.016-0.308,1.397-0.924s0.571-1.357,0.571-2.223c0-0.957-0.204-1.698-0.61-2.223-0.472-0.616-1.214-0.924-2.223-0.924h-0.787v-0.944l2.754-4.761h-3.325l-0.925,1.574h-0.59v-3.542h7.672v0.964l-2.912,5.016c1.023,0.328,1.797,0.925,2.321,1.791,0.525,0.865,0.788,1.881,0.788,3.048z"/>
				</g>
			</g>
		</g>
		<g transform="translate(0,1021.3622)">
			<g image-rendering="optimizeQuality" text-rendering="geometricPrecision" shape-rendering="geometricPrecision">
				<g image-rendering="optimizeQuality" text-rendering="geometricPrecision" shape-rendering="geometricPrecision">
					<path fill="none" d="M0,0,88,0,88,31,0,31z"/>
					<path fill-rule="evenodd" fill="#b3cee1" d="M0,0,83,0,83,31,0,31z"/>
					<path fill-rule="evenodd" fill="#FFF" d="m0.365,0,36.443,0,0,31-36.443,0z"/>
					<defs>
						<rect id="XMLID_256_" y="30" width="83" height="1" x="0"/>
					</defs>
					<use fill-rule="evenodd" xlink:href="#XMLID_256_" height="1" width="1" clip-rule="evenodd" y="0" x="0" fill="#504d4c"/>
					<clipPath id="XMLID_278_">
						<use xlink:href="#XMLID_256_" height="1" width="1" y="0" x="0"/>
					</clipPath>
					<g clip-path="url(#XMLID_278_)">
						<path fill="none" d="M0,0,88,0,88,31,0,31z"/>
						<path fill-rule="evenodd" fill="#48494b" d="M0,0,83,0,83,31,0,31z"/>
						<path fill-rule="evenodd" fill="#4f4f4f" d="m0.365,0,36.443,0,0,31-36.443,0z"/>
					</g>
					<defs>
						<rect id="XMLID_258_" y="0" width="1" height="31" x="82"/>
					</defs>
					<use fill-rule="evenodd" xlink:href="#XMLID_258_" height="1" width="1" clip-rule="evenodd" y="0" x="0" fill="#504d4c"/>
					<clipPath id="XMLID_279_">
						<use xlink:href="#XMLID_258_" height="1" width="1" y="0" x="0"/>
					</clipPath>
					<g clip-path="url(#XMLID_279_)">
						<path fill="none" d="M0,0,88,0,88,31,0,31z"/>
						<path fill-rule="evenodd" fill="#48494b" d="M0,0,83,0,83,31,0,31z"/>
						<defs>
							<rect id="XMLID_260_" y="30" width="83" height="1" x="0"/>
						</defs>
						<use fill-rule="evenodd" xlink:href="#XMLID_260_" height="1" width="1" clip-rule="evenodd" y="0" x="0" fill="#191919"/>
						<clipPath id="XMLID_280_">
							<use xlink:href="#XMLID_260_" height="1" width="1" y="0" x="0"/>
						</clipPath>
						<g clip-path="url(#XMLID_280_)">
							<path fill="none" d="M0,0,88,0,88,31,0,31z"/>
							<path fill-rule="evenodd" fill="#181818" d="M0,0,83,0,83,31,0,31z"/>
							<path fill-rule="evenodd" fill="#191919" d="m0.365,0,36.443,0,0,31-36.443,0z"/>
						</g>
					</g>
					<path fill-rule="evenodd" fill="#CCC" d="M0,0,1,0,1,31,0,31z"/>
					<defs>
						<rect id="XMLID_262_" y="1" width="1" height="30" x="80.806"/>
					</defs>
					<use fill-rule="evenodd" xlink:href="#XMLID_262_" height="1" width="1" clip-rule="evenodd" y="0" x="0" fill="#9e9c9c"/>
					<clipPath id="XMLID_281_">
						<use xlink:href="#XMLID_262_" height="1" width="1" y="0" x="0"/>
					</clipPath>
					<g clip-path="url(#XMLID_281_)">
						<path fill="none" d="M0,0,88,0,88,31,0,31z"/>
						<path fill-rule="evenodd" fill="#9097a0" d="M0,0,83,0,83,31,0,31z"/>
						<defs>
							<rect id="XMLID_264_" y="30" width="83" height="1" x="0"/>
						</defs>
						<use fill-rule="evenodd" xlink:href="#XMLID_264_" height="1" width="1" clip-rule="evenodd" y="0" x="0" fill="#383838"/>
						<clipPath id="XMLID_282_">
							<use xlink:href="#XMLID_264_" height="1" width="1" y="0" x="0"/>
						</clipPath>
						<g clip-path="url(#XMLID_282_)">
							<path fill="none" d="M0,0,88,0,88,31,0,31z"/>
							<path fill-rule="evenodd" fill="#343536" d="M0,0,83,0,83,31,0,31z"/>
							<path fill-rule="evenodd" fill="#383838" d="m0.365,0,36.443,0,0,31-36.443,0z"/>
						</g>
					</g>
					<path fill="none" d="m44.697,26.897-40.005,0,0-24.606,0,0,40.005,0z"/>
					<path fill="none" d="M24.695,14.594"/>
					<defs>
						<polygon id="XMLID_266_" points="2.16,29.005,82.16,29.005,82.16,30.005,2.16,30.005,2.16,29.005"/>
					</defs>
					<use xlink:href="#XMLID_266_" height="1" width="1" y="0" x="0" fill="#9e9c9c"/>
					<clipPath id="XMLID_283_">
						<use xlink:href="#XMLID_266_" height="1" width="1" y="0" x="0"/>
					</clipPath>
					<g clip-path="url(#XMLID_283_)">
						<path fill="none" d="M0,0,88,0,88,31,0,31z"/>
						<path fill-rule="evenodd" fill="#9097a0" d="M0,0,83,0,83,31,0,31z"/>
						<path fill-rule="evenodd" fill="#b5b5b5" d="m0.365,0,36.443,0,0,31-36.443,0z"/>
						<defs>
							<rect id="XMLID_268_" y="30" width="83" height="1" x="0"/>
						</defs>
						<use fill-rule="evenodd" xlink:href="#XMLID_268_" height="1" width="1" clip-rule="evenodd" y="0" x="0" fill="#383838"/>
						<clipPath id="XMLID_284_">
							<use xlink:href="#XMLID_268_" height="1" width="1" y="0" x="0"/>
						</clipPath>
						<g clip-path="url(#XMLID_284_)">
							<path fill="none" d="M0,0,88,0,88,31,0,31z"/>
							<path fill-rule="evenodd" fill="#343536" d="M0,0,83,0,83,31,0,31z"/>
							<path fill-rule="evenodd" fill="#383838" d="m0.365,0,36.443,0,0,31-36.443,0z"/>
						</g>
						<defs>
							<rect id="XMLID_270_" y="0" width="1" height="31" x="82"/>
						</defs>
						<use fill-rule="evenodd" xlink:href="#XMLID_270_" height="1" width="1" clip-rule="evenodd" y="0" x="0" fill="#383838"/>
						<clipPath id="XMLID_285_">
							<use xlink:href="#XMLID_270_" height="1" width="1" y="0" x="0"/>
						</clipPath>
						<g clip-path="url(#XMLID_285_)">
							<path fill="none" d="M0,0,88,0,88,31,0,31z"/>
							<path fill-rule="evenodd" fill="#343536" d="M0,0,83,0,83,31,0,31z"/>
							<defs>
								<rect id="XMLID_272_" y="30" width="83" height="1" x="0"/>
							</defs>
							<use fill-rule="evenodd" xlink:href="#XMLID_272_" height="1" width="1" clip-rule="evenodd" y="0" x="0" fill="#131313"/>
							<clipPath id="XMLID_286_">
								<use xlink:href="#XMLID_272_" height="1" width="1" y="0" x="0"/>
							</clipPath>
							<g clip-path="url(#XMLID_286_)">
								<path fill="none" d="M0,0,88,0,88,31,0,31z"/>
								<path fill-rule="evenodd" fill="#131313" d="M0,0,83,0,83,31,0,31z"/>
								<path fill-rule="evenodd" fill="#131313" d="m0.365,0,36.443,0,0,31-36.443,0z"/>
							</g>
						</g>
						<defs>
							<rect id="XMLID_274_" y="1" width="1" height="30" x="80.806"/>
						</defs>
						<use fill-rule="evenodd" xlink:href="#XMLID_274_" height="1" width="1" clip-rule="evenodd" y="0" x="0" fill="#818181"/>
						<clipPath id="XMLID_287_">
							<use xlink:href="#XMLID_274_" height="1" width="1" y="0" x="0"/>
						</clipPath>
						<g clip-path="url(#XMLID_287_)">
							<path fill="none" d="M0,0,88,0,88,31,0,31z"/>
							<path fill-rule="evenodd" fill="#6e7176" d="M0,0,83,0,83,31,0,31z"/>
							<defs>
								<rect id="XMLID_276_" y="30" width="83" height="1" x="0"/>
							</defs>
							<use fill-rule="evenodd" xlink:href="#XMLID_276_" height="1" width="1" clip-rule="evenodd" y="0" x="0" fill="#272727"/>
							<clipPath id="XMLID_288_">
								<use xlink:href="#XMLID_276_" height="1" width="1" y="0" x="0"/>
							</clipPath>
							<g clip-path="url(#XMLID_288_)">
								<path fill="none" d="M0,0,88,0,88,31,0,31z"/>
								<path fill-rule="evenodd" fill="#252626" d="M0,0,83,0,83,31,0,31z"/>
								<path fill-rule="evenodd" fill="#272727" d="m0.365,0,36.443,0,0,31-36.443,0z"/>
							</g>
						</g>
					</g>
					<path fill="#CCC" d="M83,1,0,1,0,0,0,0,83,0z"/>
					<path fill="#CCC" d="M41.5,0.5"/>
					<path d="m68.273,18.844,6.018,5.504,11.71-11.711" stroke="#005a9c" stroke-miterlimit="3.86369991" stroke-width="4.81169987" fill="none"/>
					<path d="m33.077,7.037,0.334,2.034-1.185,2.266s-0.455-0.961-1.21-1.493c-0.636-0.449-1.051-0.546-1.699-0.412-0.833,0.171-1.777,1.167-2.189,2.395-0.493,1.469-0.498,2.179-0.515,2.833-0.027,1.046,0.137,1.665,0.137,1.665s-0.719-1.331-0.712-3.279c0.005-1.391,0.223-2.652,0.867-3.896,0.566-1.094,1.408-1.751,2.154-1.828,0.772-0.08,1.382,0.292,1.854,0.695,0.495,0.423,0.996,1.348,0.996,1.348l1.168-2.328z"/>
					<path d="m33.222,18.546s-0.523,0.936-0.85,1.296c-0.326,0.36-0.91,0.996-1.631,1.313s-1.099,0.377-1.811,0.309c-0.712-0.069-1.374-0.481-1.605-0.652-0.232-0.172-0.824-0.678-1.159-1.15-0.335-0.473-0.858-1.417-0.858-1.417s0.292,0.946,0.474,1.348c0.105,0.231,0.428,0.938,0.886,1.553,0.427,0.574,1.257,1.562,2.519,1.785s2.128-0.343,2.343-0.48c0.214-0.137,0.667-0.516,0.953-0.822,0.299-0.32,0.582-0.728,0.738-0.972,0.114-0.178,0.301-0.541,0.301-0.541l-0.3-1.57z"/>
					<path fill="#005a9c" d="m11.437,7.127,2.852,9.698,2.852-9.698h2.065l-4.72,15.933h-0.197l-2.951-9.875-2.95,9.875h-0.197l-4.721-15.933h2.065l2.852,9.698,1.928-6.531-0.943-3.167h2.065z"/>
					<path fill="#005a9c" d="m25.072,17.946c0,1.443-0.384,2.656-1.151,3.64-0.767,0.983-1.76,1.475-2.98,1.475-0.918,0-1.718-0.292-2.4-0.875s-1.187-1.374-1.515-2.371l1.613-0.668c0.236,0.604,0.548,1.079,0.935,1.426s0.843,0.521,1.367,0.521c0.551,0,1.016-0.308,1.397-0.924s0.571-1.357,0.571-2.223c0-0.957-0.204-1.698-0.61-2.223-0.472-0.616-1.214-0.925-2.223-0.925h-0.787v-0.944l2.754-4.761h-3.325l-0.925,1.574h-0.59v-3.541h7.672v0.964l-2.912,5.016c1.023,0.328,1.797,0.925,2.321,1.791,0.525,0.865,0.788,1.881,0.788,3.048z"/>
					<path fill-rule="evenodd" d="m44.053,9.391,2.53,3.721-1.958,0-1.705-2.49-1.689,2.49-1.968,0,2.529-3.721-2.431-3.569,1.963,0,1.596,2.348,1.592-2.348,1.973,0z"/>
					<path fill-rule="evenodd" d="m47.8,5.822,1.88,0,0,2.778,2.774,0,0-2.778,1.879,0,0,7.29-1.879,0,0-3.091-2.774,0,0,3.091-1.88,0z"/>
					<path fill-rule="evenodd" d="m59.702,13.112-1.88,0,0-5.869-2.422,0,0-1.421,6.719,0,0,1.421-2.417,0z"/>
					<path fill-rule="evenodd" d="m63.191,13.112,0-7.29,2.392,0,1.661,3.901,1.67-3.901,2.387,0,0,7.29-1.777,0,0-5.332-1.68,3.93-1.191,0-1.68-3.93,0,5.332z"/>
					<path fill-rule="evenodd" d="m73.242,5.822,1.88,0,0,5.869,3.3,0,0,1.421-5.18,0z"/>
					<path fill-rule="evenodd" d="m41.688,22.996,0-4.712-1.704,0.352,0-1.28,1.695-0.351,1.787,0,0,5.991,1.66,0,0,1.299-5.098,0,0-1.299z"/>
					<path fill-rule="evenodd" d="m46.435,22.405,1.758,0,0,1.89-1.758,0z"/>
					<path fill-rule="evenodd" clip-rule="evenodd" d="m54.213,20.643c0-0.911-0.086-1.552-0.259-1.924-0.169-0.374-0.456-0.561-0.859-0.562-0.404,0-0.692,0.188-0.864,0.562-0.173,0.371-0.259,1.013-0.259,1.924,0,0.921,0.086,1.571,0.259,1.948,0.172,0.378,0.46,0.566,0.864,0.566,0.4,0,0.687-0.188,0.859-0.566,0.173-0.378,0.259-1.027,0.259-1.948zm1.88,0.014c0,1.208-0.261,2.141-0.781,2.798-0.521,0.654-1.26,0.981-2.217,0.981-0.96,0-1.701-0.327-2.222-0.981-0.521-0.657-0.781-1.59-0.781-2.798,0-1.211,0.26-2.144,0.781-2.798,0.521-0.657,1.262-0.986,2.222-0.986,0.957,0,1.696,0.329,2.217,0.986,0.521,0.655,0.781,1.587,0.781,2.798z"/>
				</g>
			</g>
		</g>
	</g>
</svg>
